<mxfile host="app.diagrams.net" modified="2023-09-06T16:13:06.495Z" agent="Mozilla/5.0 (X11; Linux x86_64) AppleWebKit/537.36 (KHTML, like Gecko) Chrome/116.0.0.0 Safari/537.36" version="21.7.2" etag="acw8pQuOdQTKMPRotQ3X" type="github">
  <diagram name="PÃ¡gina-1" id="6vjg3dm73ua-xhY8Nmkh">
    <mxGraphModel>
      <root>
        <mxCell id="0" />
        <mxCell id="1" parent="0" />
      </root>
    </mxGraphModel>
  </diagram>
</mxfile>
